<svg width="32" height="32" viewBox="0 0 32 32" fill="none" xmlns="http://www.w3.org/2000/svg">
<path fill-rule="evenodd" clip-rule="evenodd" d="M13.574 2.77133L6.25838 5.00773C5.50332 5.23855 4.9838 5.93062 4.97294 6.72008L4.70021 26.5388C4.67489 28.3792 6.44648 29.7129 8.20808 29.1797L15.1809 27.0689L15.5965 4.29666C15.6159 3.23303 14.5914 2.46033 13.574 2.77133ZM17.8446 29.0835L18.296 4.34592C18.3489 1.44748 15.557 -0.658131 12.7847 0.189355L5.46907 2.42575C3.59189 2.9996 2.30027 4.72019 2.27326 6.68293L2.00053 26.5017C1.95007 30.1688 5.48015 32.8264 8.99033 31.7638L17.8446 29.0835Z" fill="#064EA4"/>
<path fill-rule="evenodd" clip-rule="evenodd" d="M17.5174 9.28435L17.2626 26.4448L24.2522 24.3828C25.4008 24.0439 26.1927 22.9937 26.2025 21.7962L26.306 9.1782C26.3179 7.7255 24.8852 6.70081 23.5143 7.18152L17.5174 9.28435ZM25.0162 26.9723C27.3049 26.2971 28.8827 24.2045 28.9023 21.8183L29.0058 9.20036C29.0331 5.87785 25.7564 3.53424 22.6209 4.63368L14.8457 7.36006L14.5085 30.0723L25.0162 26.9723Z" fill="#064EA4"/>
<path fill-rule="evenodd" clip-rule="evenodd" d="M13.2068 2.82428L5.99434 5.09785C5.48537 5.25829 5.10738 5.68777 5.01288 6.21299C4.70564 7.92056 6.35522 9.32449 7.99172 8.74822L15.5697 6.07978V4.55695C15.5697 3.32943 14.3775 2.45523 13.2068 2.82428ZM18.2696 7.99147V4.55695C18.2696 1.50514 15.3057 -0.668258 12.395 0.249259L5.18261 2.52283C3.71659 2.98496 2.62782 4.22204 2.35562 5.73488C1.68182 9.47976 5.29948 12.5587 8.88848 11.2949L18.2696 7.99147Z" fill="#064EA4"/>
</svg>
