<svg width="226" height="40" viewBox="0 0 226 40" fill="none" xmlns="http://www.w3.org/2000/svg">
<path fill-rule="evenodd" clip-rule="evenodd" d="M14.0399 3.75521L5.25359 6.44119C4.34675 6.71841 3.72279 7.5496 3.70974 8.49777L3.38218 32.3007C3.35177 34.511 5.4795 36.1128 7.59524 35.4724L15.9699 32.9373L16.4689 5.58718C16.4923 4.30972 15.2618 3.38169 14.0399 3.75521ZM19.1689 35.3569L19.7111 5.64634C19.7746 2.16522 16.4215 -0.363676 13.0919 0.654179L4.30561 3.34015C2.05106 4.02937 0.499787 6.09584 0.467348 8.45316L0.139795 32.2561C0.0791865 36.6604 4.31891 39.8522 8.53474 38.576L19.1689 35.3569Z" fill="white"/>
<path fill-rule="evenodd" clip-rule="evenodd" d="M18.776 11.5762L18.47 32.1864L26.8647 29.7098C28.2442 29.3028 29.1952 28.0415 29.207 26.6032L29.3314 11.4487C29.3457 9.70395 27.625 8.47327 25.9785 9.05061L18.776 11.5762ZM27.7822 32.82C30.531 32.009 32.4261 29.4957 32.4496 26.6298L32.5739 11.4753C32.6067 7.48487 28.6712 4.67012 24.9055 5.99059L15.5672 9.26505L15.1623 36.5431L27.7822 32.82Z" fill="white"/>
<path fill-rule="evenodd" clip-rule="evenodd" d="M13.5988 3.82013L4.93651 6.55075C4.32524 6.74345 3.87125 7.25926 3.75776 7.89007C3.38875 9.94092 5.36994 11.6271 7.33543 10.935L16.4368 7.73008V5.90112C16.4368 4.42683 15.0049 3.37689 13.5988 3.82013ZM19.6795 10.0261V5.90112C19.6795 2.2358 16.1197 -0.37451 12.6239 0.727454L3.96161 3.45808C2.20088 4.01311 0.893224 5.49888 0.566305 7.31584C-0.242947 11.8136 4.10198 15.5114 8.41247 13.9936L19.6795 10.0261Z" fill="white"/>
<path d="M48.9946 30.8633V8.16783H63.4224V10.9561H52.4313V18.0241H62.4498V20.7476H52.4313V28.075H63.4224V30.8633H48.9946ZM74.2081 31.2523C72.6518 31.2523 71.2793 30.8849 70.0905 30.15C68.9017 29.4151 67.9722 28.41 67.3022 27.1347C66.6321 25.8595 66.2971 24.4113 66.2971 22.7902C66.2971 21.1691 66.6321 19.7317 67.3022 18.478C67.9722 17.2028 68.9017 16.2085 70.0905 15.4952C71.3009 14.7603 72.6842 14.3929 74.2405 14.3929C75.5158 14.3929 76.6289 14.6414 77.58 15.1386C78.5526 15.6357 79.3092 16.3382 79.8495 17.246V7.51939H83.2863V30.8633H80.2062L79.8495 28.3668C79.3308 29.1233 78.6175 29.7934 77.7097 30.377C76.8019 30.9605 75.6347 31.2523 74.2081 31.2523ZM74.8241 28.2695C76.2939 28.2695 77.4935 27.7616 78.423 26.7457C79.374 25.7298 79.8495 24.4221 79.8495 22.8226C79.8495 21.2015 79.374 19.8938 78.423 18.8995C77.4935 17.8836 76.2939 17.3757 74.8241 17.3757C73.3543 17.3757 72.1439 17.8836 71.1928 18.8995C70.2418 19.8938 69.7663 21.2015 69.7663 22.8226C69.7663 23.8817 69.9824 24.822 70.4147 25.6433C70.847 26.4647 71.4414 27.1131 72.1979 27.5887C72.976 28.0426 73.8514 28.2695 74.8241 28.2695ZM93.0461 31.2523C91.1007 31.2523 89.5661 30.6471 88.4421 29.4367C87.3398 28.2263 86.7886 26.4215 86.7886 24.0222V14.7819H90.2253V23.6656C90.2253 26.7781 91.5006 28.3344 94.0512 28.3344C95.3264 28.3344 96.3747 27.8805 97.1961 26.9726C98.0175 26.0648 98.4281 24.7679 98.4281 23.082V14.7819H101.865V30.8633H98.8172L98.5578 28.0426C98.0607 29.0368 97.3258 29.8258 96.3531 30.4094C95.4021 30.9714 94.2997 31.2523 93.0461 31.2523ZM113.349 31.2523C111.772 31.2523 110.356 30.8957 109.102 30.1824C107.87 29.4691 106.897 28.4857 106.184 27.232C105.492 25.9567 105.147 24.4869 105.147 22.8226C105.147 21.1583 105.492 19.6993 106.184 18.4456C106.897 17.1704 107.87 16.1761 109.102 15.4628C110.356 14.7495 111.772 14.3929 113.349 14.3929C115.338 14.3929 117.002 14.9116 118.342 15.9491C119.704 16.9866 120.579 18.3916 120.969 20.164H117.37C117.154 19.2778 116.678 18.5861 115.943 18.089C115.208 17.5918 114.344 17.3433 113.349 17.3433C112.506 17.3433 111.728 17.5594 111.015 17.9917C110.302 18.4024 109.729 19.0184 109.297 19.8398C108.864 20.6395 108.648 21.6338 108.648 22.8226C108.648 24.0114 108.864 25.0165 109.297 25.8379C109.729 26.6376 110.302 27.2536 111.015 27.6859C111.728 28.1182 112.506 28.3344 113.349 28.3344C114.344 28.3344 115.208 28.0858 115.943 27.5887C116.678 27.0915 117.154 26.389 117.37 25.4812H120.969C120.601 27.2104 119.737 28.6045 118.375 29.6637C117.013 30.7228 115.338 31.2523 113.349 31.2523ZM129.636 31.2523C128.274 31.2523 127.15 31.0254 126.264 30.5715C125.378 30.1176 124.719 29.5232 124.287 28.7883C123.854 28.0318 123.638 27.2104 123.638 26.3242C123.638 24.7679 124.243 23.5359 125.454 22.6281C126.664 21.7203 128.393 21.2663 130.641 21.2663H134.856V20.9745C134.856 19.7209 134.51 18.7807 133.819 18.1538C133.149 17.527 132.273 17.2136 131.192 17.2136C130.241 17.2136 129.409 17.4514 128.696 17.9269C128.004 18.3808 127.583 19.0616 127.431 19.9695H123.995C124.103 18.8023 124.492 17.808 125.162 16.9866C125.854 16.1437 126.718 15.506 127.756 15.0737C128.815 14.6198 129.971 14.3929 131.225 14.3929C133.473 14.3929 135.213 14.9873 136.445 16.1761C137.677 17.3433 138.293 18.9428 138.293 20.9745V30.8633H135.31L135.018 28.1074C134.564 28.9936 133.905 29.7393 133.04 30.3445C132.176 30.9497 131.041 31.2523 129.636 31.2523ZM130.317 28.464C131.246 28.464 132.025 28.2479 132.651 27.8156C133.3 27.3617 133.797 26.7673 134.143 26.0324C134.51 25.2975 134.737 24.4869 134.824 23.6007H130.998C129.636 23.6007 128.663 23.8385 128.08 24.314C127.518 24.7895 127.237 25.384 127.237 26.0972C127.237 26.8321 127.507 27.4157 128.047 27.848C128.609 28.2587 129.366 28.464 130.317 28.464ZM148.221 30.8633C146.643 30.8633 145.389 30.485 144.46 29.7285C143.53 28.9504 143.065 27.5778 143.065 25.6109V17.6675H140.31V14.7819H143.065L143.487 10.6968H146.502V14.7819H151.041V17.6675H146.502V25.6109C146.502 26.4971 146.686 27.1131 147.053 27.459C147.442 27.7832 148.102 27.9453 149.031 27.9453H150.879V30.8633H148.221ZM156.024 11.7343C155.375 11.7343 154.835 11.5397 154.403 11.1507C153.992 10.74 153.787 10.232 153.787 9.62682C153.787 9.02161 153.992 8.52447 154.403 8.13541C154.835 7.72473 155.375 7.51939 156.024 7.51939C156.672 7.51939 157.202 7.72473 157.612 8.13541C158.045 8.52447 158.261 9.02161 158.261 9.62682C158.261 10.232 158.045 10.74 157.612 11.1507C157.202 11.5397 156.672 11.7343 156.024 11.7343ZM154.305 30.8633V14.7819H157.742V30.8633H154.305ZM169.294 31.2523C167.76 31.2523 166.376 30.9065 165.144 30.2148C163.934 29.5016 162.972 28.5181 162.259 27.2644C161.545 25.9892 161.189 24.5086 161.189 22.8226C161.189 21.1367 161.545 19.6669 162.259 18.4132C162.993 17.1379 163.977 16.1545 165.209 15.4628C166.441 14.7495 167.814 14.3929 169.327 14.3929C170.861 14.3929 172.234 14.7495 173.444 15.4628C174.676 16.1545 175.649 17.1379 176.362 18.4132C177.097 19.6669 177.465 21.1367 177.465 22.8226C177.465 24.5086 177.097 25.9892 176.362 27.2644C175.649 28.5181 174.676 29.5016 173.444 30.2148C172.212 30.9065 170.829 31.2523 169.294 31.2523ZM169.294 28.3019C170.116 28.3019 170.872 28.0966 171.564 27.6859C172.277 27.2752 172.85 26.67 173.282 25.8703C173.714 25.0489 173.931 24.033 173.931 22.8226C173.931 21.6122 173.714 20.6071 173.282 19.8074C172.871 18.986 172.309 18.37 171.596 17.9593C170.904 17.5486 170.148 17.3433 169.327 17.3433C168.505 17.3433 167.738 17.5486 167.025 17.9593C166.333 18.37 165.771 18.986 165.339 19.8074C164.906 20.6071 164.69 21.6122 164.69 22.8226C164.69 24.033 164.906 25.0489 165.339 25.8703C165.771 26.67 166.333 27.2752 167.025 27.6859C167.716 28.0966 168.473 28.3019 169.294 28.3019ZM180.675 30.8633V14.7819H183.722L183.982 17.6027C184.479 16.6084 185.203 15.8302 186.154 15.2683C187.127 14.6847 188.24 14.3929 189.493 14.3929C191.439 14.3929 192.963 14.9981 194.065 16.2085C195.189 17.4189 195.751 19.2238 195.751 21.623V30.8633H192.347V21.9796C192.347 18.8671 191.071 17.3109 188.521 17.3109C187.245 17.3109 186.186 17.7648 185.343 18.6726C184.522 19.5804 184.111 20.8773 184.111 22.5632V30.8633H180.675ZM205.949 30.8633L212.952 19.3859L205.884 8.16783H209.807L215.157 16.6624L220.15 8.16783H224.008L216.973 19.548L224.105 30.8633H220.182L214.8 22.3039L209.807 30.8633H205.949Z" fill="white"/>
</svg>
